<svg width="24" height="24" viewBox="0 0 24 24" fill="none" xmlns="http://www.w3.org/2000/svg">
<path d="M21.8288 0.950623H2.17126C1.84803 0.950623 1.53804 1.07903 1.30948 1.30759C1.08092 1.53615 0.952515 1.84614 0.952515 2.16937V21.8287C0.952515 22.152 1.08092 22.462 1.30948 22.6905C1.53804 22.9191 1.84803 23.0475 2.17126 23.0475H12.75V14.4919H9.87376V11.1562H12.75V8.69625C12.75 5.8425 14.4938 4.28812 17.04 4.28812C17.8993 4.28506 18.758 4.32887 19.6125 4.41937V7.4025H17.8519C16.4663 7.4025 16.1981 8.06062 16.1981 9.02625V11.1562H19.5L19.0706 14.4919H16.1981V23.0494H21.8231C22.1462 23.0489 22.4559 22.9203 22.6844 22.6919C22.9128 22.4634 23.0414 22.1537 23.0419 21.8306V2.17125C23.0424 1.84866 22.915 1.53904 22.6876 1.31023C22.4602 1.08143 22.1513 0.952111 21.8288 0.950623V0.950623Z" fill="#3D5A98"/>
</svg>
