<svg width="24" height="24" viewBox="0 0 24 24" fill="none" xmlns="http://www.w3.org/2000/svg">
<g clip-path="url(#clip0_605_11)">
<path fill-rule="evenodd" clip-rule="evenodd" d="M9.522 15.135L9.52125 8.34387L16.0058 11.7511L9.522 15.135ZM23.76 7.16708C23.76 7.16708 23.5252 5.5016 22.806 4.76819C21.8932 3.80515 20.8702 3.80061 20.4015 3.74472C17.043 3.5 12.0052 3.5 12.0052 3.5H11.9948C11.9948 3.5 6.957 3.5 3.5985 3.74472C3.129 3.80061 2.10675 3.80515 1.19325 4.76819C0.474003 5.5016 0.239998 7.16708 0.239998 7.16708C0.239998 7.16708 0 9.12336 0 11.0789V12.9128C0 14.8691 0.239998 16.8246 0.239998 16.8246C0.239998 16.8246 0.474003 18.4901 1.19325 19.2235C2.10675 20.1865 3.306 20.1563 3.84 20.2568C5.76 20.4426 12 20.5 12 20.5C12 20.5 17.043 20.4924 20.4015 20.2477C20.8702 20.1911 21.8932 20.1865 22.806 19.2235C23.5252 18.4901 23.76 16.8246 23.76 16.8246C23.76 16.8246 24 14.8691 24 12.9128V11.0789C24 9.12336 23.76 7.16708 23.76 7.16708Z" fill="#CE1312"/>
</g>
<defs>
<clipPath id="clip0_605_11">
<rect width="24" height="24" fill="white"/>
</clipPath>
</defs>
</svg>
